<?xml version="1.0" standalone="no"?><!DOCTYPE svg PUBLIC "-//W3C//DTD SVG 1.1//EN" "http://www.w3.org/Graphics/SVG/1.1/DTD/svg11.dtd"><svg t="1744889795200" class="icon" viewBox="0 0 1024 1024" version="1.1" xmlns="http://www.w3.org/2000/svg" p-id="1000" xmlns:xlink="http://www.w3.org/1999/xlink" width="200" height="200"><path d="M792.992 424.64c16.544 0 25.92 18.944 15.92 32.112l-116.976 153.904 71.904 74.784a20 20 0 0 1 0.896 26.72l-1.488 1.6-304.912 291.52c-16.048 15.344-41.408-2.96-31.904-23.008l114.464-241.648-76.752-73.808a20 20 0 0 1-5.328-20.048l0.752-2.112 87.12-207.744a20 20 0 0 1 18.448-12.256h227.84zM529.392 12.544c82.88 4.608 151.632 42.24 206.752 101.648a407.712 407.712 0 0 1 62.912 89.616l0.16 0.336 1.168 0.096c4.56 0.4 9.76 0.992 15.488 1.808l4.4 0.64c24.88 3.872 49.792 10.768 73.248 21.488 66 30.192 107.584 84.544 110.464 166.368 2.8 79.84-19.2 136.48-59.52 171.68-27.904 24.352-62.4 35.84-87.824 35.84h-67.008a20 20 0 1 1 0-40h67.008c16.224 0 41.344-8.368 61.52-25.968 30.8-26.88 48.24-71.84 45.84-140.16-2.304-65.6-34.08-107.136-87.104-131.376-19.84-9.072-41.28-14.992-62.784-18.336-7.52-1.184-14.496-1.936-20.72-2.368a127.36 127.36 0 0 0-7.2-0.352 20 20 0 0 1-18.32-12.16 152.32 152.32 0 0 0-3.376-7.152c-3.04-6.112-6.768-12.96-11.152-20.384a368.064 368.064 0 0 0-46.512-62.4C658.24 89.04 598.72 56.432 527.168 52.48c-75.04-4.16-126.336 18.688-159.856 59.248a162 162 0 0 0-28.224 50.288c7.808 3.52 15.824 7.744 23.84 12.736 47.792 29.664 76.448 75.84 74.768 139.744-1.664 62.816-30.512 104.448-76.64 126.624-15.616 7.52-32.144 12.24-48.72 14.784-9.184 1.424-17.008 1.984-22.928 2.048h-2.912l-2.976-0.32a155.072 155.072 0 0 1-45.84-16.576c-61.392-33.712-71.888-95.552-2.752-176.896a20 20 0 1 1 30.48 25.92c-52.912 62.24-47.424 94.528-8.48 115.904 7.36 4.032 15.392 7.264 23.456 9.696 3.184 0.96 5.84 1.648 7.792 2.08l0.832 0.192h1.728a132.592 132.592 0 0 0 48.608-10.88l4.384-2c33.024-15.888 52.736-44.32 53.984-91.632 1.28-48.688-19.472-82.112-55.872-104.704a172.48 172.48 0 0 0-40.272-18.08 158.144 158.144 0 0 0-16.192-4.176 122.48 122.48 0 0 0-3.952-0.224c-34.16-1.536-75.888 2.352-115.36 16-68.576 23.744-109.84 70.592-113.728 149.552-4.096 83.392 28.752 137.696 86.944 170.976a239.584 239.584 0 0 0 61.76 24.304 232.16 232.16 0 0 0 25.392 4.768l1.104 0.112h170.048a20 20 0 0 1 18.496 27.648l-0.832 1.76-49.296 92.784 44.352 36.512a20 20 0 0 1 2.88 27.952l-1.44 1.632-170.88 170.88c-14.928 14.928-39.792-0.432-33.12-20.448l49.024-147.2-42.064-31.52a20 20 0 0 1-7.04-22.128l0.768-2 26.8-60.32a20 20 0 1 1 36.56 16.24l-20.352 45.76 40.88 30.656c6.304 4.736 9.184 12.688 7.52 20.272l-0.56 2.048-26.816 80.448 95.392-95.392-39.936-32.896a20 20 0 0 1-5.872-22.848l0.912-1.984 41.36-77.856h-137.6l-1.648-0.048c-7.072-0.592-18.752-2.352-33.552-5.984a279.056 279.056 0 0 1-72.096-28.416C48.704 517.056 7.52 448.96 12.384 349.84c4.752-96.64 57.616-156.656 140.608-185.376 45.04-15.6 91.456-19.904 130.224-18.176 2.528 0.112 4.368 0.24 6.768 0.48 3.52 0.528 7.296 1.232 11.328 2.16a201.712 201.712 0 0 1 35.152-62.672C378.016 35.968 441.552 7.664 529.392 12.528zM752.64 464.656H578.4L501.76 647.472l77.232 74.288c5.68 5.456 7.584 13.68 5.024 21.008l-0.8 1.968-74.32 156.88L721.104 698.72l-69.856-72.672a20 20 0 0 1-2.768-24.096l1.264-1.872 102.912-135.424zM608.672 138.72c43.296 22.032 76.448 59.808 94.944 115.296a20 20 0 0 1-37.952 12.64c-15.12-45.376-41.088-74.96-75.136-92.288a166 166 0 0 0-88.736-17.056 20 20 0 1 1-5.12-39.68 95.04 95.04 0 0 1 5.184-0.48 204.592 204.592 0 0 1 106.816 21.568z" p-id="1001"></path></svg>